<svg xmlns="http://www.w3.org/2000/svg" width="43.78" height="50" viewBox="0 0 43.78 50">
  <g id="custody" transform="translate(-31.988)">
    <path id="Path_24" data-name="Path 24" d="M45.376,168.933A.977.977,0,0,0,44,168.826a5.929,5.929,0,0,0-2.055,3.829l-2.979-3.449v-5.249a6.008,6.008,0,0,0-6-6,.977.977,0,0,0-.977.977v12.4a.978.978,0,0,0,.111.452l7.869,15.094v4.692a.977.977,0,0,0,.977.977h9.882a.977.977,0,0,0,.977-.977V178.507a5.634,5.634,0,0,0-1.358-3.668ZM49.85,190.6H41.922v-3.955a.978.978,0,0,0-.111-.452L33.942,171.1V160.03a4.054,4.054,0,0,1,3.069,3.927v5.612a.977.977,0,0,0,.238.639l7.609,8.81.034.039a.977.977,0,1,0,1.479-1.277L44.834,176a4.024,4.024,0,0,1-.23-4.965l4.359,5.078a3.678,3.678,0,0,1,.887,2.395V190.6Z" transform="translate(0 -142.553)" fill="#bfaa7e"/>
    <path id="Path_25" data-name="Path 25" d="M291.776,170.209a.977.977,0,0,0,.238-.639V164.25a4.178,4.178,0,0,1,3.069-4.223v11.31a.977.977,0,0,0,1.954,0v-12.4a.977.977,0,0,0-.977-.977,5.823,5.823,0,0,0-4.331,1.871,6.476,6.476,0,0,0-1.67,4.423v4.955l-2.979,3.445a5.93,5.93,0,0,0-2.055-3.825.977.977,0,0,0-1.375.107l-5.07,5.906a5.634,5.634,0,0,0-1.358,3.668v13.069a.977.977,0,0,0,.977.977h9.882a.977.977,0,0,0,.977-.977v-4.692l3.861-7.4a.977.977,0,0,0-1.733-.9l-3.971,7.617a.978.978,0,0,0-.111.452V190.6h-7.928V178.507a3.679,3.679,0,0,1,.887-2.395l4.359-5.078a4.026,4.026,0,0,1-.09,4.794l-1.866,2.157a.977.977,0,0,0,1.477,1.28Z" transform="translate(-221.269 -142.553)" fill="#bfaa7e"/>
    <path id="Path_26" data-name="Path 26" d="M161.4,26.417V22.665h2.523a.977.977,0,0,0,.969-1.1l-1.1-8.583,0-.015c-.023-.158-.053-.315-.087-.47a6.831,6.831,0,0,1,2.307,4.049l.275,1.58a.978.978,0,0,0,.962.81.992.992,0,0,0,.169-.015.977.977,0,0,0,.8-1.13l-.275-1.58a8.78,8.78,0,0,0-4.489-6.249l-2.656-1.441a4.822,4.822,0,1,0-6.178,0L151.96,9.962a8.781,8.781,0,0,0-4.489,6.249l-.275,1.58a.977.977,0,1,0,1.926.334l.275-1.58A6.831,6.831,0,0,1,151.7,12.5c-.035.155-.065.312-.087.47l0,.015-1.1,8.583a.977.977,0,0,0,.969,1.1h2.523v3.751a.977.977,0,1,0,1.954,0V22.665h3.485v3.751a.977.977,0,1,0,1.954,0ZM157.7,1.954a2.868,2.868,0,1,1-2.868,2.868A2.871,2.871,0,0,1,157.7,1.954Zm-4.153,11.283a4.2,4.2,0,0,1,8.305,0l.957,7.474H152.6Z" transform="translate(-103.937)" fill="#bfaa7e"/>
    <path id="Path_27" data-name="Path 27" d="M440.828,326.246a.976.976,0,1,0-.529,1.276A.984.984,0,0,0,440.828,326.246Z" transform="translate(-367.195 -293.844)" fill="#bfaa7e"/>
  </g>
</svg>
