<svg xmlns="http://www.w3.org/2000/svg" width="50.125" height="50" viewBox="0 0 50.125 50">
  <g id="social-responsibility" transform="translate(0 -0.594)">
    <g id="Group_63" data-name="Group 63" transform="translate(0 0.594)">
      <path id="Path_30" data-name="Path 30" d="M185.5,15.871A17.545,17.545,0,0,0,178.67,4.187a17.768,17.768,0,0,0-21.5.056A.979.979,0,0,0,158.362,5.8a15.805,15.805,0,0,1,19.126-.049A15.688,15.688,0,0,1,180.5,27.763a15.744,15.744,0,0,1-27.147-15.389.979.979,0,1,0-1.815-.736A17.7,17.7,0,1,0,185.5,15.871Z" transform="translate(-135.544 -0.594)" fill="#bfaa7e"/>
      <path id="Path_31" data-name="Path 31" d="M34.846,353.964l-8.117,2.116a3.444,3.444,0,0,0-.143-.791,3.391,3.391,0,0,0-1.661-2.02l-3.008-1.6a15.347,15.347,0,0,0-7.1-1.707H14.74a16.164,16.164,0,0,0-7.253,1.779,2.253,2.253,0,0,0-2.1-1.438H2.247A2.25,2.25,0,0,0,0,352.547v9.83a2.248,2.248,0,0,0,2.247,2.244H5.388a2.252,2.252,0,0,0,2.207-1.81l12.369,2.828a5,5,0,0,0,1.129.125,9.186,9.186,0,0,0,3.428-.827L36.6,359.981c1.586-.654,2.911-2.335,2.243-4.16A3.12,3.12,0,0,0,34.846,353.964ZM5.681,362.377a.293.293,0,0,1-.292.286H2.247a.292.292,0,0,1-.289-.286v-9.829a.293.293,0,0,1,.289-.289H5.388a.294.294,0,0,1,.292.289v9.829Zm30.175-4.206-12.077,4.956a5.581,5.581,0,0,1-3.376.6L7.638,360.813v-6.93A13.973,13.973,0,0,1,21,353.395L24,355a1.446,1.446,0,0,1,.708.862,1.431,1.431,0,0,1-.1,1.1,1.462,1.462,0,0,1-1.973.6l-4.959-2.617a.979.979,0,0,0-.914,1.732l4.958,2.616a3.422,3.422,0,0,0,4.373-1.02l9.247-2.411c.869-.227,1.429-.015,1.664.633S36.592,357.867,35.856,358.17Z" transform="translate(0 -315.765)" fill="#bfaa7e"/>
      <path id="Path_32" data-name="Path 32" d="M208.919,92.8h4.56V95.58a.979.979,0,0,0,.979.979h11.081a.979.979,0,0,0,.979-.979V92.8h4.56a.979.979,0,0,0,.979-.978l0-3.008a4.878,4.878,0,0,0-2.5-4.5,4.5,4.5,0,0,0-4.017-6.541,4.512,4.512,0,0,0-4.466,3.887,4.5,4.5,0,0,0-2.149,0,4.509,4.509,0,0,0-8.975.613,4.466,4.466,0,0,0,.492,2.04,4.878,4.878,0,0,0-2.5,4.5v3.007a.979.979,0,0,0,.979.979Zm15.641,1.8h-9.123V92.573a4.477,4.477,0,0,1,.043-.639s0-.007,0-.01a2.966,2.966,0,0,1,1.776-2.322,4.5,4.5,0,0,0,5.484,0,2.967,2.967,0,0,1,1.773,2.322l0,.01a4.489,4.489,0,0,1,.043.639Zm5.54-3.757h-3.825a4.837,4.837,0,0,0-2.258-2.77,4.456,4.456,0,0,0,.449-1.425,4.516,4.516,0,0,0,3.816-.8,3.013,3.013,0,0,1,1.82,2.97Zm-7.112-8.568a2.553,2.553,0,1,1,1.232,2.175,4.517,4.517,0,0,0-1.2-1.752A2.525,2.525,0,0,1,222.988,82.275Zm-.437,3.757A2.551,2.551,0,1,1,220,83.489,2.55,2.55,0,0,1,222.551,86.032Zm-8.093-6.3a2.533,2.533,0,0,1,2.513,2.969,4.517,4.517,0,0,0-1.191,1.747,2.545,2.545,0,1,1-1.322-4.716Zm-4.56,9.083a3.012,3.012,0,0,1,1.818-2.971,4.516,4.516,0,0,0,3.818.8,4.458,4.458,0,0,0,.449,1.425,4.835,4.835,0,0,0-2.26,2.771H209.9Z" transform="translate(-187.582 -70.22)" fill="#bfaa7e"/>
      <path id="Path_33" data-name="Path 33" d="M186.045,69.828a.976.976,0,0,0,.692-.287l0,0a.979.979,0,1,0-.7.289Z" transform="translate(-166.948 -61.283)" fill="#bfaa7e"/>
    </g>
  </g>
</svg>
