<svg id="email_1_" data-name="email (1)" xmlns="http://www.w3.org/2000/svg" width="16.675" height="12.702" viewBox="0 0 16.675 12.702">
  <g id="Group_106" data-name="Group 106" transform="translate(0 0)">
    <path id="Path_36" data-name="Path 36" d="M15.209,61H1.466A1.468,1.468,0,0,0,0,62.466v9.77A1.468,1.468,0,0,0,1.466,73.7H15.209a1.468,1.468,0,0,0,1.466-1.466v-9.77A1.468,1.468,0,0,0,15.209,61Zm-.2.977L8.369,68.616l-6.7-6.638ZM.977,72.034V62.663l4.705,4.665Zm.691.691,4.708-4.708,1.65,1.636a.488.488,0,0,0,.689,0l1.609-1.609,4.683,4.683Zm14.03-.691-4.683-4.683L15.7,62.668Z" transform="translate(0 -61)" fill="#fff"/>
  </g>
</svg>
