<svg xmlns="http://www.w3.org/2000/svg" width="20.339" height="15.254" viewBox="0 0 20.339 15.254">
  <g id="envelope_1_" data-name="envelope (1)" transform="translate(0 -64)">
    <g id="Group_132" data-name="Group 132" transform="translate(0 64)">
      <g id="Group_131" data-name="Group 131">
        <path id="Path_39" data-name="Path 39" d="M7.064,65.238c2.791,2.364,7.69,6.523,9.129,7.82a.85.85,0,0,0,1.23,0c1.441-1.3,6.339-5.458,9.131-7.822a.423.423,0,0,0,.06-.585A1.683,1.683,0,0,0,25.283,64H8.334A1.683,1.683,0,0,0,7,64.653.423.423,0,0,0,7.064,65.238Z" transform="translate(-6.639 -64)" fill="#bfaa7e"/>
        <path id="Path_40" data-name="Path 40" d="M20.093,126.451a.422.422,0,0,0-.452.061c-3.1,2.624-7.047,5.988-8.29,7.108a1.716,1.716,0,0,1-2.365,0c-1.325-1.194-5.762-4.966-8.289-7.107a.424.424,0,0,0-.7.323v10.656a1.7,1.7,0,0,0,1.695,1.695H18.644a1.7,1.7,0,0,0,1.695-1.695V126.835A.423.423,0,0,0,20.093,126.451Z" transform="translate(0 -123.932)" fill="#bfaa7e"/>
      </g>
    </g>
  </g>
</svg>
