<svg xmlns="http://www.w3.org/2000/svg" width="80" height="80" viewBox="0 0 80 80">
  <g id="Group_139" data-name="Group 139" transform="translate(-1113 -1010)">
    <g id="Ellipse_3" data-name="Ellipse 3" transform="translate(1113 1010)" fill="#bfaa7e" stroke="#bfaa7e" stroke-width="1">
      <circle cx="40" cy="40" r="40" stroke="none"/>
      <circle cx="40" cy="40" r="39.5" fill="none"/>
    </g>
    <g id="courthouse_1_" data-name="courthouse (1)" transform="translate(1137 1034)">
      <path id="Path_22" data-name="Path 22" d="M30.126,26.529V25.422a2.826,2.826,0,0,0-1.883-2.66V13.168h.946a.938.938,0,0,0,.938-.938V9.1a.938.938,0,0,0-.444-.8L16.5.141a.938.938,0,0,0-.987,0L2.328,8.3a.938.938,0,0,0-.444.8v3.134a.938.938,0,0,0,.938.938h.946v9.593a2.826,2.826,0,0,0-1.883,2.66v1.106A2.826,2.826,0,0,0,0,29.189v1.883a.938.938,0,0,0,.938.938H31.072a.938.938,0,0,0,.938-.938V29.189A2.826,2.826,0,0,0,30.126,26.529ZM13.184,13.168V22.6H9.409V13.168ZM16.95,22.6H15.059V13.168H16.95Zm1.876-9.433H22.6V22.6H18.826ZM26.367,22.6H24.476V13.168h1.891ZM3.759,9.619,16,2.041,28.251,9.619v1.674H3.759Zm3.775,3.549V22.6H5.642V13.168ZM3.759,25.422a.947.947,0,0,1,.946-.946h22.6a.947.947,0,0,1,.946.946v.946H3.759Zm26.375,4.712H1.876v-.946a.947.947,0,0,1,.946-.946H29.189a.947.947,0,0,1,.946.946Z" fill="#fff"/>
      <path id="Path_23" data-name="Path 23" d="M213.7,70.25a2.821,2.821,0,1,0,2.821,2.821A2.824,2.824,0,0,0,213.7,70.25Zm0,3.767a.946.946,0,1,1,.946-.946A.947.947,0,0,1,213.7,74.017Z" transform="translate(-197.691 -65.858)" fill="#fff"/>
    </g>
  </g>
</svg>
