<svg xmlns="http://www.w3.org/2000/svg" width="80" height="80" viewBox="0 0 80 80">
  <g id="Group_138" data-name="Group 138" transform="translate(-781 -1012)">
    <g id="Ellipse_4" data-name="Ellipse 4" transform="translate(781 1012)" fill="#bfaa7e" stroke="#bfaa7e" stroke-width="1">
      <circle cx="40" cy="40" r="40" stroke="none"/>
      <circle cx="40" cy="40" r="39.5" fill="none"/>
    </g>
    <g id="auction_1_" data-name="auction (1)" transform="translate(803 1033.999)">
      <g id="Group_39" data-name="Group 39" transform="translate(7.064 12.025)">
        <g id="Group_38" data-name="Group 38">
          <path id="Path_17" data-name="Path 17" d="M101.9,171.625a.7.7,0,1,0,0,.992A.7.7,0,0,0,101.9,171.625Z" transform="translate(-100.705 -171.42)" fill="#fff"/>
        </g>
      </g>
      <g id="Group_41" data-name="Group 41" transform="translate(0 27.496)">
        <g id="Group_40" data-name="Group 40">
          <path id="Path_18" data-name="Path 18" d="M17.76,395.9a2.456,2.456,0,0,0-1.979-3.909H3.858A2.453,2.453,0,0,0,1.881,395.9,3.51,3.51,0,0,0,0,399v.7a.7.7,0,0,0,.7.7H18.938a.7.7,0,0,0,.7-.7V399A3.51,3.51,0,0,0,17.76,395.9ZM3.114,393.7a1.045,1.045,0,0,1,.744-.308H15.782a1.052,1.052,0,1,1,0,2.1H3.858a1.052,1.052,0,0,1-.744-1.8ZM1.4,399a2.107,2.107,0,0,1,2.1-2.1H16.132a2.107,2.107,0,0,1,2.1,2.1Z" transform="translate(0 -391.987)" fill="#fff"/>
        </g>
      </g>
      <g id="Group_43" data-name="Group 43" transform="translate(0.001 0.001)">
        <g id="Group_42" data-name="Group 42" transform="translate(0 0)">
          <path id="Path_19" data-name="Path 19" d="M35.28,29.47a4.417,4.417,0,0,0-.845-.97l-3.277-2.859a.7.7,0,0,0-.279-.243L28.9,23.669l-9.174-8a2.1,2.1,0,0,0-.616-3.35l.849-.849a2.807,2.807,0,0,0,2.709-.725,2.805,2.805,0,0,0,0-3.968L16.712.823a2.8,2.8,0,0,0-4.693,2.709L3.551,12a2.823,2.823,0,0,0-.726-.1A2.805,2.805,0,0,0,.841,16.694l5.951,5.952a2.8,2.8,0,0,0,4.693-2.709l.847-.847a2.1,2.1,0,0,0,3.351.615l9.771,11.227a.7.7,0,0,0,.1.119c.013.013.026.024.039.035L28.5,34.431c.072.085.15.169.23.25A4.172,4.172,0,0,0,31.7,35.914a4.305,4.305,0,0,0,.59-.041,4.244,4.244,0,0,0,3.131-2.168A4.15,4.15,0,0,0,35.28,29.47ZM13.736,1.815a1.4,1.4,0,0,1,1.984,0l5.952,5.951A1.4,1.4,0,0,1,19.688,9.75L13.737,3.8h0A1.4,1.4,0,0,1,13.736,1.815ZM9.769,21.653a1.4,1.4,0,0,1-1.984,0L1.833,15.7a1.4,1.4,0,0,1,1.983-1.984L9.769,19.67A1.4,1.4,0,0,1,9.769,21.653Zm2.953-4.937-1.961,1.961L4.809,12.726,12.744,4.79,18.7,10.742l-1.965,1.965-.019.019-3.966,3.966Zm2.5,1.463,0,0-.494.494a.7.7,0,0,1-1-.983l3.984-3.984a.7.7,0,0,1,1.19.5.7.7,0,0,1-.206.5l-.491.491-.01.01Zm1.453.531,2.05-2.05,8.68,7.571L24.242,27.4Zm8.486,9.749,3.3-3.3,1.06.924-3.44,3.44Zm9.03,4.56a2.853,2.853,0,0,1-2.1,1.464,2.787,2.787,0,0,1-2.371-.795c-.054-.054-.106-.11-.154-.167l-.007-.008-2.552-2.932L30.588,27l2.928,2.554.007.006a3.02,3.02,0,0,1,.579.666A2.769,2.769,0,0,1,34.195,33.02Z" transform="translate(-0.021 -0.001)" fill="#fff"/>
        </g>
      </g>
      <g id="Group_45" data-name="Group 45" transform="translate(9.047 7.065)">
        <g id="Group_44" data-name="Group 44">
          <path id="Path_20" data-name="Path 20" d="M133.159,100.913a.7.7,0,0,0-.992,0l-2.976,2.976a.7.7,0,1,0,.992.992l2.976-2.976A.7.7,0,0,0,133.159,100.913Z" transform="translate(-128.985 -100.707)" fill="#fff"/>
        </g>
      </g>
    </g>
  </g>
</svg>
