<svg xmlns="http://www.w3.org/2000/svg" width="80" height="80" viewBox="0 0 80 80">
  <g id="Group_137" data-name="Group 137" transform="translate(-457 -1008)">
    <g id="Ellipse_2" data-name="Ellipse 2" transform="translate(457 1008)" fill="#bfaa7e" stroke="#bfaa7e" stroke-width="1">
      <circle cx="40" cy="40" r="40" stroke="none"/>
      <circle cx="40" cy="40" r="39.5" fill="none"/>
    </g>
    <g id="balance_3_" data-name="balance (3)" transform="translate(476.998 1028.001)">
      <g id="Group_46" data-name="Group 46" transform="translate(0.002 -0.001)">
        <path id="Path_21" data-name="Path 21" d="M40.749,24.887l.006,0-6.7-14.621,1.625-.809-.608-1.218-1.584.789-.214-.467a.68.68,0,0,0-1.237,0l-.191.418a8.75,8.75,0,0,0-3.68-.814H22.45V6.8h1.361V5.442H22.641l.489-1.957a2.8,2.8,0,1,0-5.442,0l.489,1.957H17.008V6.8h1.361V8.163H12.658a8.751,8.751,0,0,0-3.684.816l-.191-.418a.68.68,0,0,0-1.237,0l-.214.467L5.748,8.236,5.14,9.455l1.625.812L.064,24.885A.664.664,0,0,0,0,25.169a4.767,4.767,0,0,0,4.762,4.762h6.8a4.767,4.767,0,0,0,4.762-4.762.665.665,0,0,0-.068-.282L9.54,10.211a7.4,7.4,0,0,1,3.118-.688h5.711V34.411l-2.322,2.322H13.607a3.405,3.405,0,0,0-3.4,3.4.68.68,0,0,0,.68.68H29.933a.68.68,0,0,0,.68-.68,3.405,3.405,0,0,0-3.4-3.4H24.773L22.45,34.411V9.523h5.714a7.4,7.4,0,0,1,3.118.688L24.553,24.885a.664.664,0,0,0-.062.284,4.767,4.767,0,0,0,4.762,4.762h6.8a4.767,4.767,0,0,0,4.762-4.762A.662.662,0,0,0,40.749,24.887ZM11.566,28.57h-6.8A3.407,3.407,0,0,1,1.43,25.849H14.9A3.407,3.407,0,0,1,11.566,28.57Zm3.022-4.082H1.742L7.991,10.856a.672.672,0,0,0,.348,0ZM19.271,1.915a1.488,1.488,0,0,1,2.276,0,1.436,1.436,0,0,1,.263,1.239l-.572,2.287H19.58l-.572-2.287A1.436,1.436,0,0,1,19.271,1.915Zm.458,6.247V6.8H21.09V8.163ZM21.09,9.523V34.012H19.729V9.523Zm6.122,28.571a2.045,2.045,0,0,1,1.924,1.361H11.683a2.045,2.045,0,0,1,1.924-1.361Zm-4.363-1.361H17.97l1.361-1.361h2.158Zm9.63-25.876a.464.464,0,0,0,.344-.014l6.254,13.645H26.231ZM36.055,28.57h-6.8a3.407,3.407,0,0,1-3.333-2.721H39.389A3.407,3.407,0,0,1,36.055,28.57Z" transform="translate(-0.002 0.001)" fill="#fff"/>
      </g>
    </g>
  </g>
</svg>
