<svg id="instagram-logo" xmlns="http://www.w3.org/2000/svg" width="15.498" height="15.498" viewBox="0 0 15.498 15.498">
  <path id="Path_4" data-name="Path 4" d="M11.221,0H4.277A4.282,4.282,0,0,0,0,4.277v6.944A4.282,4.282,0,0,0,4.277,15.5h6.944A4.282,4.282,0,0,0,15.5,11.221V4.277A4.282,4.282,0,0,0,11.221,0Zm2.9,11.221a2.905,2.905,0,0,1-2.9,2.9H4.277a2.9,2.9,0,0,1-2.9-2.9V4.277a2.905,2.905,0,0,1,2.9-2.9h6.944a2.905,2.905,0,0,1,2.9,2.9v6.944Z" transform="translate(0)" fill="#fff"/>
  <path id="Path_5" data-name="Path 5" d="M44.885,40.97A3.917,3.917,0,1,0,48.8,44.887,3.922,3.922,0,0,0,44.885,40.97Zm0,6.485a2.568,2.568,0,1,1,2.568-2.568A2.571,2.571,0,0,1,44.885,47.455Z" transform="translate(-37.136 -37.138)" fill="#fff"/>
  <path id="Path_6" data-name="Path 6" d="M119.95,28.251a1.028,1.028,0,1,0,.728.3A1.033,1.033,0,0,0,119.95,28.251Z" transform="translate(-108.053 -25.669)" fill="#fff"/>
</svg>
