<svg xmlns="http://www.w3.org/2000/svg" width="15.041" height="15" viewBox="0 0 15.041 15">
  <g id="phone-call" transform="translate(-0.344 -27.406)">
    <g id="Group_14" data-name="Group 14" transform="translate(0.344 27.406)">
      <path id="Path_14" data-name="Path 14" d="M13.006,36.348a1.582,1.582,0,0,0-1.144-.521,1.636,1.636,0,0,0-1.157.517L9.635,37.4c-.088-.047-.176-.091-.261-.134-.122-.06-.237-.118-.335-.178a11.6,11.6,0,0,1-2.785-2.52,6.8,6.8,0,0,1-.914-1.431c.278-.252.535-.514.785-.766.095-.094.19-.192.284-.286a1.534,1.534,0,0,0,0-2.325l-.924-.917c-.1-.1-.213-.212-.315-.319-.2-.208-.416-.423-.636-.625A1.607,1.607,0,0,0,3.4,27.406,1.664,1.664,0,0,0,2.25,27.9l-.007.007L1.093,29.059a2.451,2.451,0,0,0-.734,1.563,5.853,5.853,0,0,0,.433,2.493A14.447,14.447,0,0,0,3.381,37.4a15.911,15.911,0,0,0,5.3,4.123,8.307,8.307,0,0,0,2.978.874c.071,0,.146.007.213.007a2.559,2.559,0,0,0,1.953-.833c0-.007.01-.01.014-.017a7.664,7.664,0,0,1,.592-.608c.146-.138.294-.282.44-.433a1.671,1.671,0,0,0,.511-1.163,1.61,1.61,0,0,0-.521-1.153Zm1.212,3.538s0,0,0,0c-.132.141-.267.269-.413.41a8.864,8.864,0,0,0-.653.672,1.637,1.637,0,0,1-1.273.534c-.051,0-.1,0-.156,0a7.379,7.379,0,0,1-2.64-.786,15.019,15.019,0,0,1-5-3.884A13.622,13.622,0,0,1,1.651,32.8a4.767,4.767,0,0,1-.379-2.1,1.538,1.538,0,0,1,.467-1l1.154-1.146a.772.772,0,0,1,.514-.239.726.726,0,0,1,.494.235l.01.01c.206.192.4.39.609.6.1.108.213.215.322.326l.924.917a.639.639,0,0,1,0,1.042c-.1.1-.193.195-.291.289-.284.289-.555.558-.849.82-.007.007-.014.01-.017.017a.682.682,0,0,0-.176.763l.01.03a7.355,7.355,0,0,0,1.093,1.771l0,0a12.391,12.391,0,0,0,3.005,2.715,4.633,4.633,0,0,0,.416.225c.122.06.237.118.335.178.014.007.027.017.041.024a.738.738,0,0,0,.335.084.726.726,0,0,0,.514-.232l1.157-1.149a.768.768,0,0,1,.511-.252.691.691,0,0,1,.487.245l.007.007,1.865,1.851A.662.662,0,0,1,14.217,39.886Z" transform="translate(-0.344 -27.406)" fill="#bfaa7e"/>
    </g>
  </g>
</svg>
