<svg xmlns="http://www.w3.org/2000/svg" width="11.138" height="15" viewBox="0 0 11.138 15">
  <g id="pin_2_" data-name="pin (2)" transform="translate(-48.08)">
    <g id="Group_17" data-name="Group 17" transform="translate(48.08)">
      <g id="Group_16" data-name="Group 16" transform="translate(0)">
        <path id="Path_15" data-name="Path 15" d="M53.649,0A5.561,5.561,0,0,0,48.08,5.541a6.367,6.367,0,0,0,.472,2.133,8.921,8.921,0,0,0,.644,1.2l3.818,5.757a.728.728,0,0,0,1.269,0L58.1,8.872a8.884,8.884,0,0,0,.644-1.2,6.365,6.365,0,0,0,.472-2.133A5.561,5.561,0,0,0,53.649,0Zm4.493,7.421a8.174,8.174,0,0,1-.587,1.092L53.737,14.27c-.075.114-.1.114-.175,0L49.743,8.513a8.177,8.177,0,0,1-.587-1.092,5.779,5.779,0,0,1-.421-1.88,4.914,4.914,0,0,1,9.828,0A5.784,5.784,0,0,1,58.142,7.421Z" transform="translate(-48.08)" fill="#bfaa7e"/>
        <path id="Path_16" data-name="Path 16" d="M115.028,64.008a2.948,2.948,0,1,0,2.948,2.948A2.952,2.952,0,0,0,115.028,64.008Zm0,5.242a2.293,2.293,0,1,1,2.293-2.293A2.3,2.3,0,0,1,115.028,69.25Z" transform="translate(-109.459 -61.409)" fill="#bfaa7e"/>
      </g>
    </g>
  </g>
</svg>
