<svg xmlns="http://www.w3.org/2000/svg" width="48.526" height="50" viewBox="0 0 48.526 50">
  <g id="division" transform="translate(-7.584)">
    <path id="Path_28" data-name="Path 28" d="M29.725,40.822a.732.732,0,0,0-.733-.732,3.73,3.73,0,0,0-1.961.557L8.726,51.98A2.409,2.409,0,0,0,7.946,55.3L9.33,57.534a2.415,2.415,0,0,0,3.318.78l.207-.128V73.3a.733.733,0,0,0,1.465,0V57.279l13.94-8.63v9.82H22.019a3.113,3.113,0,0,0-3.11,3.11v9.559a3.113,3.113,0,0,0,3.11,3.109H28.26v4.962H14.32V76.225a.733.733,0,0,0-1.465,0v3.716a.732.732,0,0,0,.733.732h15.4a.732.732,0,0,0,.733-.732ZM11.877,57.068a.948.948,0,0,1-1.3-.305L9.191,54.526a.948.948,0,0,1,.306-1.3L27.8,41.893a2.269,2.269,0,0,1,.458-.216v5.249Zm16.383,7.55H23.311v-1.75H28.26Zm0,8.163H22.019a1.647,1.647,0,0,1-1.645-1.645V61.577a1.647,1.647,0,0,1,1.645-1.645H28.26V61.4H22.578a.732.732,0,0,0-.733.732V65.35h0v5.226a.732.732,0,0,0,.733.732H28.26Zm-4.949-2.936V66.083H28.26v3.762Z" transform="translate(0 -36.174)" fill="#bfaa7e"/>
    <path id="Path_29" data-name="Path 29" d="M283.769,29.07a4.129,4.129,0,0,0-4.693.446V18.1a2.486,2.486,0,0,0,2.028.425,2.4,2.4,0,0,0,1.5-1.077l1.384-2.236a2.413,2.413,0,0,0-.78-3.318l-5.051-3.127a.732.732,0,1,0-.771,1.245l5.051,3.127a.947.947,0,0,1,.306,1.3l-1.384,2.235a.95.95,0,0,1-1.3.306L263.671,6.836V1.587a2.268,2.268,0,0,1,.457.216L274.942,8.5a.732.732,0,1,0,.771-1.245L264.9.558A3.728,3.728,0,0,0,262.939,0a.732.732,0,0,0-.733.732v39.12a.732.732,0,0,0,.733.732h2.073a4.141,4.141,0,0,0,.34.513l5.665,7.307a4.148,4.148,0,0,0,3.256,1.6c.1,0,.2,0,.3-.011a4.111,4.111,0,0,0,3.289-2.083l7.469-13.223A4.124,4.124,0,0,0,283.769,29.07Zm-15.149-4.54h-4.949V22.78h4.949Zm0,1.465v3.762h-4.949V25.994Zm-4.949,5.227h5.681a.732.732,0,0,0,.733-.732v-5.22s0,0,0-.008,0,0,0-.008V22.047a.732.732,0,0,0-.733-.732h-5.681V19.844h6.24a1.647,1.647,0,0,1,1.645,1.645v9.56a1.647,1.647,0,0,1-1.645,1.645h-6.24Zm0,7.9V34.158h6.24a3.113,3.113,0,0,0,3.11-3.11v-9.56a3.113,3.113,0,0,0-3.11-3.11h-6.24V8.559l13.94,8.63v14.4l-3.877,6.865-1.868-2.41a4.119,4.119,0,0,0-7.339,3.071Zm20.384-5.157-7.469,13.223a2.65,2.65,0,0,1-2.119,1.343,2.684,2.684,0,0,1-2.292-1.021L266.51,40.2a2.655,2.655,0,0,1,4.2-3.254l2.543,3.28a.733.733,0,0,0,1.217-.089l4.963-8.786a2.656,2.656,0,0,1,4.625,2.611Z" transform="translate(-229.753 0)" fill="#bfaa7e"/>
  </g>
</svg>
